<?xml version="1.0" encoding="UTF-8"?>
<!DOCTYPE svg PUBLIC "-//W3C//DTD SVG 1.1//EN" "http://www.w3.org/Graphics/SVG/1.1/DTD/svg11.dtd">
<!-- Creator: CorelDRAW 2021 (64 Bit) -->
<svg xmlns="http://www.w3.org/2000/svg" xml:space="preserve" width="8mm" height="8mm" version="1.1" style="shape-rendering:geometricPrecision; text-rendering:geometricPrecision; image-rendering:optimizeQuality; fill-rule:evenodd; clip-rule:evenodd"
viewBox="0 0 800 800"
 xmlns:xlink="http://www.w3.org/1999/xlink"
 xmlns:xodm="http://www.corel.com/coreldraw/odm/2003">
 <defs>
  <style type="text/css">
   <![CDATA[
    .fil0 {fill:#2C2D40}
   ]]>
  </style>
 </defs>
 <g id="Camada_x0020_1">
  <metadata id="CorelCorpID_0Corel-Layer"/>
  <path class="fil0" d="M-2.81 398.01c0,68.72 5.99,105.3 27.91,168.22 1.86,5.33 3.51,8.1 5.97,13.09 2.64,5.37 3.68,9.01 6.2,14.45 12.92,27.82 35.6,63.88 56.41,86.24 4.11,4.42 5.36,7 9.34,11.23 6.96,7.41 13.24,13.49 20.35,20.77 13.54,13.88 28.57,26.38 44.77,37.36 16.43,11.13 32.09,21.34 49.88,30.51 12.12,6.24 48.72,22.93 61.99,22.93 11.13,0 18.75,-10.4 18.75,-22.4l0 -75.2c-9.4,0.21 -15.17,3.2 -26.57,3.2 -48.28,0 -88.49,-2.56 -108.94,-51.64 -9.79,-23.51 -22.99,-46.56 -44.5,-60.03 -6.18,-3.87 -14.59,-10.78 -15.31,-19.53 19.93,-13.66 51.11,5.34 65.28,19.55 18.96,19.02 33.51,64.86 78.03,62.75 19.05,-0.9 33.35,-0.41 48.54,-9.05 9.22,-5.25 4.53,-21.8 17.78,-42.59 3.52,-5.51 8.96,-8.03 10.69,-14.66 -11.67,-1 -27.73,-4.15 -38.96,-6.52 -41.56,-8.75 -77.36,-27.2 -104.32,-59.57 -11.23,-13.48 -18.6,-29.59 -24.52,-46.89 -20.49,-59.9 -20.21,-130.7 15.57,-183.7 13.2,-19.54 12.07,-8.54 6.55,-32.55 -5.99,-26.04 0.03,-91.58 12.86,-91.58 23.1,0 39.05,7.81 58.04,15.77 27.47,11.51 43.11,28.56 53.17,26.34 23.76,-5.23 44.76,-11.92 70.04,-11.71 11.86,0.1 18.42,-2.35 31.26,-1.61 27.98,1.62 57.92,4.74 85.02,12.24 6.2,1.72 6.87,2.89 11.57,0.41 19.4,-10.27 20.76,-15.61 52.73,-29.32 20.07,-8.61 25.69,-12.12 53.8,-12.12 5.83,25.62 12.5,21.24 12.5,68.8 0,8.3 -0.9,14.02 -2.47,21.47 -1.14,5.36 -5.16,15.31 -4.79,18.29 0.75,5.98 69.19,68.24 26.99,198.05 -15.39,47.32 -48.94,78.52 -93.16,96.6 -21.48,8.78 -52.49,17.05 -76.57,17.6 10.22,15.63 17.71,16.59 23.07,40.38 8.61,38.28 -1.5,130.39 5.11,154.76 2.59,9.55 10.01,14.46 20.26,14.46 10.15,0 48.94,-17.89 57.83,-22.38 13.06,-6.58 27.15,-13.74 38.82,-22.64l34.39 -25.59c15.01,-12.25 28.45,-26.1 42.03,-40.16 4.18,-4.32 5.29,-6.87 9.35,-11.23 22.09,-23.75 42.69,-56.66 56.67,-85.97 23.47,-49.19 40.59,-108.18 40.59,-164.83 0,-54.53 -3.7,-107.96 -23.21,-157.04 -9.51,-23.93 -18.84,-45.06 -30.98,-67.47l-19.23 -29.91c-13.81,-20.04 -28.01,-37.42 -44.94,-54.79 -36.58,-37.52 -82.96,-68.67 -130.95,-88.3 -6.35,-2.6 -12.54,-4.93 -18.1,-7.07 -68.27,-26.23 -155.16,-29.13 -226.32,-11.41 -37.64,9.37 -70.46,23.75 -104.18,42.11 -30.35,16.52 -59.57,39.9 -83.73,64.67 -23.85,24.47 -46.6,53.43 -63.61,83.67 -6.01,10.69 -11,20.83 -16.73,32.46 -19.02,38.66 -38.02,103.8 -38.02,161.08z"/>
 </g>
</svg>
