<?xml version="1.0" encoding="UTF-8"?>
<!DOCTYPE svg PUBLIC "-//W3C//DTD SVG 1.1//EN" "http://www.w3.org/Graphics/SVG/1.1/DTD/svg11.dtd">
<!-- Creator: CorelDRAW 2021 (64 Bit) -->
<svg xmlns="http://www.w3.org/2000/svg" xml:space="preserve" width="7.056mm" height="7.056mm" version="1.1" style="shape-rendering:geometricPrecision; text-rendering:geometricPrecision; image-rendering:optimizeQuality; fill-rule:evenodd; clip-rule:evenodd"
viewBox="0 0 705.6 705.6"
 xmlns:xlink="http://www.w3.org/1999/xlink"
 xmlns:xodm="http://www.corel.com/coreldraw/odm/2003">
 <defs>
  <style type="text/css">
   <![CDATA[
    .fil0 {fill:#2C2D40}
   ]]>
  </style>
 </defs>
 <g id="Camada_x0020_1">
  <metadata id="CorelCorpID_0Corel-Layer"/>
  <path class="fil0" d="M0.19 351.41c0,60.02 5.23,91.97 24.41,146.91 1.62,4.65 3.07,7.08 5.21,11.44 2.31,4.69 3.22,7.86 5.43,12.61 11.29,24.3 31.13,55.79 49.33,75.31 3.59,3.86 4.69,6.12 8.17,9.81 6.08,6.47 11.58,11.78 17.79,18.14 11.85,12.12 24.98,23.04 39.15,32.62 14.38,9.72 28.06,18.64 43.63,26.65 10.59,5.45 42.6,20.02 54.2,20.02 9.74,0 16.4,-9.08 16.4,-19.56l0 -65.67c-8.22,0.19 -13.27,2.8 -23.23,2.8 -42.23,0 -77.39,-2.24 -95.27,-45.1 -8.57,-20.53 -20.1,-40.66 -38.92,-52.43 -5.41,-3.37 -12.76,-9.41 -13.38,-17.05 17.42,-11.93 44.69,4.66 57.08,17.07 16.58,16.61 29.3,56.64 68.24,54.8 16.66,-0.78 29.16,-0.36 42.45,-7.9 8.06,-4.59 3.96,-19.04 15.55,-37.19 3.07,-4.82 7.83,-7.02 9.34,-12.81 -10.2,-0.87 -24.25,-3.62 -34.06,-5.69 -36.35,-7.65 -67.66,-23.76 -91.23,-52.02 -9.82,-11.78 -16.27,-25.85 -21.44,-40.95 -17.93,-52.31 -17.68,-114.14 13.61,-160.43 11.54,-17.06 10.56,-7.45 5.72,-28.42 -5.24,-22.74 0.04,-79.97 11.26,-79.97 20.19,0 34.14,6.82 50.75,13.77 24.02,10.05 37.7,24.94 46.49,23 20.79,-4.57 39.15,-10.41 61.26,-10.23 10.37,0.09 16.11,-2.05 27.34,-1.4 24.46,1.41 50.64,4.14 74.35,10.69 5.42,1.5 6.01,2.52 10.11,0.35 16.97,-8.97 18.16,-13.62 46.12,-25.6 17.55,-7.52 22.46,-10.58 47.05,-10.58 5.09,22.37 10.93,18.54 10.93,60.08 0,7.24 -0.79,12.24 -2.17,18.75 -0.99,4.68 -4.51,13.37 -4.18,15.97 0.65,5.22 60.5,59.59 23.6,172.95 -13.45,41.33 -42.8,68.58 -81.47,84.36 -18.78,7.67 -45.9,14.89 -66.96,15.37 8.94,13.65 15.49,14.49 20.17,35.27 7.54,33.42 -1.3,113.86 4.48,135.15 2.26,8.34 8.75,12.62 17.71,12.62 8.88,0 42.8,-15.62 50.58,-19.54 11.42,-5.74 23.74,-12 33.95,-19.78l30.07 -22.34c13.13,-10.69 24.88,-22.79 36.76,-35.07 3.65,-3.77 4.62,-6 8.17,-9.81 19.32,-20.74 37.34,-49.48 49.56,-75.07 20.53,-42.96 35.5,-94.48 35.5,-143.95 0,-47.62 -3.24,-94.28 -20.3,-137.14 -8.32,-20.89 -16.47,-39.35 -27.09,-58.92l-16.82 -26.12c-12.08,-17.5 -24.49,-32.68 -39.3,-47.85 -31.99,-32.76 -72.55,-59.96 -114.52,-77.11 -5.55,-2.27 -10.97,-4.31 -15.83,-6.17 -59.7,-22.91 -135.69,-25.44 -197.92,-9.97 -32.92,8.18 -61.62,20.74 -91.11,36.78 -26.53,14.43 -52.09,34.84 -73.21,56.47 -20.86,21.37 -40.75,46.66 -55.63,73.07 -5.26,9.33 -9.62,18.19 -14.63,28.35 -16.64,33.76 -33.25,90.65 -33.25,140.66z"/>
 </g>
</svg>
